<svg height="512pt" viewBox="0 -9 512 512" width="512pt" xmlns="http://www.w3.org/2000/svg"><path fill="#2bdbff" d="m512 344.589844v-274.332032c0-5.542968-4.496094-10.039062-10.039062-10.039062h-340.347657v-50.179688c0-5.542968-4.496093-10.039062-10.039062-10.039062h-141.535157c-5.542968 0-10.039062 4.496094-10.039062 10.039062v334.550782c0 5.542968 4.496094 10.039062 10.039062 10.039062h266.570313c-12.640625 17.824219-19.886719 39.46875-19.886719 62.339844v66.019531c0 5.542969 4.496094 10.039063 10.039063 10.039063h234.601562c5.546875 0 10.042969-4.496094 10.042969-10.039063v-66.019531c0-22.867188-7.25-44.515625-19.886719-62.339844h10.4375c5.546875 0 10.042969-4.496094 10.042969-10.039062zm-491.917969-324.507813h121.453125v40.136719h-121.453125zm471.242188 452.867188h-47.265625v-20.816407c0-5.546874-4.496094-10.042968-10.039063-10.042968s-10.039062 4.496094-10.039062 10.042968v20.816407h-79.808594v-61.984375c0-5.542969-4.496094-10.039063-10.042969-10.039063-5.542968 0-10.039062 4.496094-10.039062 10.039063v61.984375h-47.289063v-55.980469c0-37.253906 23.632813-70.535156 58.804688-82.808594l11.289062-3.941406 9.589844 24.269531c.054687.144531.117187.285157.179687.425781 4.601563 10.230469 14.425782 16.761719 25.636719 17.046876 11.21875.273437 21.355469-5.746094 26.464844-15.730469.070313-.136719.140625-.273438.203125-.417969l11.722656-25.78125 11.828125 4.128906c35.171875 12.273438 58.804688 45.550782 58.804688 82.808594zm-104.199219-161.628907h-8.109375c-24.171875 0-43.835937-19.664062-43.835937-43.832031v-32.183593c7.804687 2.527343 14.738281 3.800781 21.148437 3.800781 6.378906 0 12.25-1.25 17.96875-3.746094 23.019531-10.058594 35.875-8.378906 50.292969-5.144531 1.769531.394531 3.652344.507812 5.597656.339844.246094-.019532.507812-.042969.773438-.066407v37c0 24.167969-19.664063 43.832031-43.835938 43.832031zm36.457031-112.515624c2.382813 3.5625 4.253907 7.492187 5.519531 11.683593-.160156.015625-.316406.03125-.488281.046875-20.011719-4.449218-36.695312-4.789062-62.355469 6.417969-4.800781 2.101563-11.554687 3.636719-25.238281-.859375-1.796875-.59375-3.507812-.886719-5.089843-1 1.070312-5.773438 3.277343-11.15625 6.382812-15.902344 8.089844-11.960937 22.277344-19.910156 38.402344-19.910156h4.734375c15.707031 0 29.914062 7.667969 38.132812 19.523438zm-44.566406 132.597656h8.109375c3.875 0 7.667969-.367188 11.355469-1.03125l-7.679688 16.882812c-2.367187 4.421875-6.730469 4.683594-7.992187 4.632813-1.285156-.03125-5.605469-.496094-7.75-5.03125l-6.445313-16.3125c3.386719.554687 6.859375.859375 10.402344.859375zm112.902344 3.144531h-18.882813c-9.84375-8.300781-21.257812-14.933594-33.898437-19.347656l-6.957031-2.425781c11.644531-11.582032 18.863281-27.605469 18.863281-45.289063v-44.371094c0-3.699219-.335938-7.320312-.941407-10.851562-.074218-.894531-.203124-1.832031-.417968-2.828125-1.664063-7.75-4.808594-14.921875-9.101563-21.292969-11.429687-17.414063-31.117187-28.941406-53.457031-28.941406h-8.109375c-22.628906 0-42.535156 11.832031-53.894531 29.621093-6.332032 9.695313-10.011719 21.140626-10.011719 33.402344 0 .0625.007813.117188.007813.179688-.003907.238281-.019532.472656-.019532.710937v44.371094c0 17.945313 7.445313 34.171875 19.394532 45.792969l-5.5 1.921875c-12.644532 4.410156-24.058594 11.042969-33.902344 19.347656h-275.007813v-254.246094h471.835938zm0 0"/><path  fill="#2bdbff" d="m38.046875 110.359375v44.925781c0 5.542969 4.496094 10.039063 10.042969 10.039063h207.769531c5.546875 0 10.042969-4.496094 10.042969-10.039063v-44.925781c0-5.546875-4.496094-10.042969-10.042969-10.042969h-207.769531c-5.546875 0-10.042969 4.496094-10.042969 10.042969zm20.082031 10.039063h187.691406v24.84375h-187.691406zm0 0"/><path fill="#2bdbff" d="m49.925781 200.859375h102.050781c5.542969 0 10.039063-4.496094 10.039063-10.039063 0-5.542968-4.496094-10.039062-10.039063-10.039062h-102.050781c-5.542969 0-10.039062 4.496094-10.039062 10.039062 0 5.542969 4.492187 10.039063 10.039062 10.039063zm0 0"/><path fill="#2bdbff" d="m200.644531 201.488281c1.253907 0 2.527344-.238281 3.761719-.738281 5.140625-2.078125 7.621094-7.933594 5.542969-13.074219l-.367188-.898437c-2.078125-5.140625-7.933593-7.617188-13.070312-5.539063-5.140625 2.078125-7.621094 7.933594-5.542969 13.070313l.367188.902344c1.578124 3.90625 5.339843 6.277343 9.308593 6.277343zm0 0"/><path fill="#2bdbff" d="m441.511719 406.296875c-2.082031-5.140625-7.933594-7.617187-13.074219-5.539063-5.136719 2.078126-7.617188 7.933594-5.539062 13.074219l.363281.898438c1.582031 3.90625 5.34375 6.277343 9.3125 6.277343 1.253906 0 2.527343-.238281 3.761719-.738281 5.140624-2.078125 7.621093-7.933593 5.539062-13.070312zm0 0"/></svg>