<svg xmlns="http://www.w3.org/2000/svg" id="hackathon" width="300" viewBox="0 0 661 661">
    <path fill="#2bdbff" class="hck-btns" id="hck-btn-3" d="M114.5,179c2,0,3.9-0.8,5.3-2.2c1.4-1.4,2.2-3.3,2.2-5.3s-0.8-3.9-2.2-5.3c-1.4-1.4-3.3-2.2-5.3-2.2
        s-3.9,0.8-5.3,2.2c-1.4,1.4-2.2,3.3-2.2,5.3s0.8,3.9,2.2,5.3C110.6,178.2,112.5,179,114.5,179z"/>
    <path fill="#2bdbff" class="hck-btns" id="hck-btn-2" d="M138.5,178c2,0,3.9-0.8,5.3-2.2c1.4-1.4,2.2-3.3,2.2-5.3s-0.8-3.9-2.2-5.3c-1.4-1.4-3.3-2.2-5.3-2.2
        s-3.9,0.8-5.3,2.2c-1.4,1.4-2.2,3.3-2.2,5.3s0.8,3.9,2.2,5.3C134.6,177.2,136.5,178,138.5,178z"/>
    <path fill="#2bdbff" class="hck-btns" id="hck-btn-1" d="M162.5,178c2,0,3.9-0.8,5.3-2.2c1.4-1.4,2.2-3.3,2.2-5.3s-0.8-3.9-2.2-5.3c-1.4-1.4-3.3-2.2-5.3-2.2
        s-3.9,0.8-5.3,2.2c-1.4,1.4-2.2,3.3-2.2,5.3c0,2,0.8,3.9,2.2,5.3C158.6,177.2,160.5,178,162.5,178z"/>
    <path fill="#2bdbff" id="hck-addr" d="M194.5,178h304c4.1,0,7.5-3.4,7.5-7.5s-3.4-7.5-7.5-7.5h-304c-4.1,0-7.5,3.4-7.5,7.5S190.4,178,194.5,178z"
        />
    <path fill="#2bdbff" id="hck-srch" d="M530.5,178h16c4.1,0,7.5-3.4,7.5-7.5s-3.4-7.5-7.5-7.5h-16c-4.1,0-7.5,3.4-7.5,7.5S526.4,178,530.5,178z"/>
    <g id="hck-eye">
        <path fill="#2bdbff" d="M290.5,347c-4.1,0-7.5,3.4-7.5,7.5v8c0,4.1,3.4,7.5,7.5,7.5s7.5-3.4,7.5-7.5v-8C298,350.4,294.6,347,290.5,347z"/>
        <path fill="#2bdbff"  d="M370.5,347c-4.1,0-7.5,3.4-7.5,7.5v8c0,4.1,3.4,7.5,7.5,7.5s7.5-3.4,7.5-7.5v-8C378,350.4,374.6,347,370.5,347z"/>
    </g>
    <path id="hck-scrn" fill="#2bdbff" d="M546.5,131h-432C92.7,131,75,148.7,75,170.5v320c0,21.8,17.7,39.5,39.5,39.5h432
        c21.8,0,39.5-17.7,39.5-39.5v-320C586,148.7,568.3,131,546.5,131z M571,490.5c0,13.5-11,24.5-24.5,24.5h-43.8H482h-15h-41h-15H250
        h-15h-41h-15h-7.8h-56.7C101,515,90,504,90,490.5V210h481V490.5z M571,195H90v-24.5c0-13.5,11-24.5,24.5-24.5h432
        c13.5,0,24.5,11,24.5,24.5V195z"/>
    <path id="hck-mask" fill="#2bdbff"  d="M268.1,397.5c2.5,0.6,5.2,0.9,7.8,0.9c2.6,0,5.2-0.3,7.7-0.8l47.3-10.2l46.4,10.1c2.6,0.6,5.2,0.8,7.8,0.8
        c2.9,0,5.8-0.4,8.6-1c2.8-0.5,8.3-2,13.7-6.4c5.9-4.8,8.5-10.6,9.5-13.2c0.4-2.1,0.6-4.4,0.9-6.9c0.2-2.3,0.3-4.7,0.3-7v-39.9
        c0,0,0,0,0-0.1v-8c0-0.4,0-0.7,0-1.1l-15,2.9v0.1L330.9,332L258,317.5v-0.1l-15-2.9c0,0.1,0,0.2,0,0.3c0,0.3,0,0.6,0,0.8v8
        c0,0,0,0,0,0.1v37.2c0,5.6,0.5,11.1,1.5,16.5c1.1,3,4.4,10.2,12.1,15.4C261,395.7,265.3,396.9,268.1,397.5z M258,332.8l71.4,14.2
        c0.5,0.1,1,0.1,1.5,0.1c0.5,0,1,0,1.5-0.1l70.6-14.2v30.8c0,3.9-0.3,7.7-0.9,11.4c0,0,0,0,0,0c-5,6.5-13.5,9.5-21.6,7.7l-48-10.5
        c0,0-0.1,0-0.1,0c-0.2,0-0.3-0.1-0.5-0.1c-0.1,0-0.2,0-0.3,0c-0.1,0-0.3,0-0.4,0c-0.1,0-0.2,0-0.3,0c-0.1,0-0.2,0-0.3,0
        c-0.1,0-0.3,0-0.4,0c-0.1,0-0.2,0-0.3,0c-0.2,0-0.3,0-0.5,0.1c0,0-0.1,0-0.1,0l-48.8,10.6c-7.9,1.7-16-1.1-21-7.1
        c-0.9-4.8-1.4-9.8-1.4-14.8V332.8z"/>
    <g id="hck-hck">
        <path fill="#2bdbff" d="M418.5,492.1c-4.1,0-7.5,3.4-7.5,7.5v15.6h15v-15.6C426,495.5,422.6,492.1,418.5,492.1z"/>
        <path fill="#2bdbff" d="M242.5,492.1c-4.1,0-7.5,3.4-7.5,7.5v15.6h15v-15.6C250,495.5,246.6,492.1,242.5,492.1z"/>
        <path fill="#2bdbff" d="M448.1,442.9c-0.1,0-0.2-0.1-0.3-0.1l-34.1-9.6c-7-2-13.1-6.2-17.4-12c3.5-3.9,7.8-9.5,11.6-17c2-3.9,4.4-9.5,6.7-19.3
        c1.8-7.5,4.1-19.7,4.1-40.6c0-16.8,0.1-25.2-2.1-35.9c-2.7-13.4-6.3-30.7-20.9-45.3c-11.8-11.7-25.2-16.2-30.5-17.7
        c-6.2-1.7-12.6-2.7-19.3-2.7h-32c-38.8,0-70.5,31.1-71.4,69.7c-0.7,9.1-1.1,19.2-0.8,30c0.3,13.5,1.6,25.8,3.2,36.7
        c1,4.9,2.6,10.8,5.3,17.3c2.3,5.5,5.1,10.7,8.4,15.6c-0.2,0.4-0.2,0.6-0.2,0.6c0,0,0.1-0.1,0.4-0.4c2,2.9,4.1,5.7,6.3,8.3
        c-4.3,6.1-10.6,10.4-17.8,12.5l-34.1,9.6c-0.1,0-0.2,0.1-0.3,0.1c-20.2,6.7-33.9,24.7-33.9,44.7v27.6h15v-27.6
        c0-13.5,9.4-25.7,23.4-30.4l33.9-9.5c9.8-2.8,18.3-8.5,24.5-16.3c13.5,11.2,30.4,18.4,48.8,19.5c2,0.1,3.9,0.2,5.9,0.2
        c20.2,0,39.3-6.8,54.8-19.4c6.2,7.7,14.6,13.3,24.3,16l33.9,9.5c14,4.7,23.4,17,23.4,30.4v27.6h15v-27.6
        C482,467.7,468.4,449.7,448.1,442.9z M380.1,416.5c-14.8,13.8-34.1,20.8-54.4,19.4c-17.3-1.1-32.8-8.6-44.7-20.1l-2.6-2.6
        c-4.3-4.2-10.5-11.2-15.3-21.2c-1.6-3.4-5.9-13-6.8-48c-0.9-33.8,2.6-43.6,4-47.3c2.2-5.6,5.6-14.1,13.6-22.1
        c14.7-14.6,33.6-16.3,39.9-16.6h32c2.1,0,8,0.2,15.4,2.4c14.2,4.1,22.7,12.5,24.5,14.2c8.8,8.8,12.1,18.4,14.6,26.3
        c3.3,10.4,3.4,20.9,3.7,42c0.2,16.6-0.7,26-2.4,34.3c-1.3,6.5-3.2,13.4-7,20.5C390.9,404.5,386,410.9,380.1,416.5z"/>
    </g>
    <g id="hck-fill">
        <path fill="#2bdbff" d="M244.1,375.4l29.4,17.6l57-12l57.8,12.3l28.9-17.8c-8.9,18-17.8,36-26.7,54.1c11.7,4.9,23.5,10,35.4,15.3
        c15.5,6.9,30.5,13.9,45.1,20.9c-1.3,16.5-2.7,33.1-4,49.6c-91,0-182,0-273,0c-1-16.1-2-32.2-3-48.3
        c26.6-13.6,53.3-27.1,79.9-40.7C262,409.4,253.1,392.4,244.1,375.4z"/>
        <polygon fill="#2bdbff" points="331,341 243,314.5 284.8,252.3 372.8,250.3 418,314.5 			"/>
    </g>
</svg>