<svg xmlns="http://www.w3.org/2000/svg" id="appdev" width="300" height = "300"  viewBox="0 0 710.7 710.7">
    <style>
        path, rect {
            fill: #2bdbff;
        }
    </style>
    <g id="apd-phone">
        <g id="apd-phone-side">
        <rect x="483.3" y="158.3" width="16" height="358.3"/>
        <rect x="211.3" y="158.3" width="16" height="358.3"/>
        </g>
        <path d="M227.3,160.3v-67c0-13.2,10.8-24,24-24h32.5c1.3,2.9,3.6,7.1,7.5,11.1c2.8,3,5.7,5,8,6.4c38,0,76,0,114,0
        c2.1-1.1,5.5-3.3,8.6-7.1c3.3-4,4.7-8,5.4-10.4h32c13.2,0,24,10.8,24,24v67h16v-67c0-22.1-17.9-40-40-40h-208
        c-22.1,0-40,17.9-40,40v67H227.3z"/>
        <path d="M483.3,514.3v61c0,13.2-10.8,24-24,24h-208c-13.2,0-24-10.8-24-24v-61h-16v61c0,22.1,17.9,40,40,40h208
        c22.1,0,40-17.9,40-40v-61H483.3z"/>
    </g>
    <g id="apd-app">
        <path d="M387,252.9c-1.1-4.1-3.7-7.6-7.4-9.7c-7.6-4.4-17.4-1.8-21.8,5.8l-2.5,4.3l-2.5-4.3c-4.4-7.6-14.2-10.2-21.8-5.8h0
        c-7.6,4.4-10.2,14.2-5.8,21.8l11.7,20.2l-43.1,74.6h-31.4c-8.8,0-16,7.2-16,16c0,8.8,7.2,16,16,16h121.2l-18.4-31.9h-34.5
        l54.7-94.8C387.6,261.3,388.1,257,387,252.9z"/>
        <path d="M448.2,359.8h-31.4L381.1,298l-18.4,31.9l55.4,96c2.1,3.7,5.6,6.3,9.7,7.4c1.4,0.4,2.8,0.6,4.2,0.6c2.8,0,5.5-0.7,8-2.1
        c7.6-4.4,10.2-14.2,5.8-21.8l-10.5-18.2h13c8.8,0,16-7.2,16-16C464.2,367,457,359.8,448.2,359.8z"/>
        <path d="M268,404.5l-3.1,5.4c-4.4,7.6-1.8,17.4,5.8,21.8c2.5,1.4,5.2,2.1,8,2.1c5.5,0,10.9-2.9,13.9-8l12.4-21.4H268z"/>
    </g>
</svg>