<svg xmlns="http://www.w3.org/2000/svg" id="codecouples"  width="300" viewBox="0 0 792 792">
    <style>
        path {
            fill: #2bdbff;
        }
    </style>
    <path id="cdc-girl-smile1" d="M649,441.4l-21-5.6c-3.4-0.9-5.4-4.4-4.5-7.8l0,0c0.9-3.4,4.4-5.4,7.8-4.5l21,5.6
    c3.4,0.9,5.4,4.4,4.5,7.8l0,0C655.8,440.3,652.3,442.3,649,441.4z"/>
    <path id="cdc-boy-smile1" d="M220.4,393.7h-36.8c-2.7,0-5-2.2-5-5l0,0c0-2.7,2.2-5,5-5h36.8c2.7,0,5,2.2,5,5l0,0
    C225.4,391.5,223.2,393.7,220.4,393.7z"/>
    <g id="cdc-boy-eye1">
    <path d="M158.4,331.6v13.8c0,3,2.4,5.5,5.2,5.5h3.3c2.9,0,5.2-2.5,5.2-5.5v-10.8L158.4,331.6z"/>
    <path d="M243.4,331.6v13.8c0,3-2.4,5.5-5.2,5.5h-3.3c-2.9,0-5.2-2.5-5.2-5.5v-10.8L243.4,331.6z"/>
    </g>
    <g id="cdc-girl">
    <path id="cdc-girl-smile" d="M652.1,416.3c-3.2-2.6-7.9-2.1-10.5,1.1c-3.2,3.9-7.4,6.1-11.9,6.1s-8.7-2.2-11.9-6.1
        c-2.6-3.2-7.3-3.7-10.5-1.1c-3.2,2.6-3.7,7.3-1.1,10.5c6,7.4,14.6,11.6,23.6,11.6s17.6-4.2,23.6-11.6
        C655.8,423.6,655.3,418.9,652.1,416.3z"/>
    <g id="cdc-girl-eye">
        <path d="M594.1,370.2c-4.1,0-7.5,3.4-7.5,7.5v8.9c0,4.1,3.4,7.5,7.5,7.5c4.1,0,7.5-3.4,7.5-7.5v-8.9
        C601.6,373.6,598.2,370.2,594.1,370.2z"/>
        <path d="M665.1,370.2c-4.1,0-7.5,3.4-7.5,7.5v8.9c0,4.1,3.4,7.5,7.5,7.5c4.1,0,7.5-3.4,7.5-7.5v-8.9
        C672.6,373.6,669.2,370.2,665.1,370.2z"/>
    </g>
    <path id="cdc-girl-body" d="M739.9,523.8L679,499.5c-3.9-1.6-6.4-5.3-6.4-9.5v-18.4c4.2-2.4,8.1-5,11.9-8.1
        c15.2-12.3,26-29.6,30.3-48.6c1.4-6.3,2.2-12.9,2.2-19.4c0-43.7-31.6-50-62.2-56c-19.6-3.9-39.8-7.9-55.9-20.8
        c-1.8-1.4-4.1-1.9-6.3-1.5c-2.2,0.5-4.1,1.9-5.1,4c0,0.1-4.2,8.4-11.4,16.4c-6,6.8-15.5,15-26.3,15c-3.6,0-7.1,0.8-10.3,2.2
        v-12.4c0-49.7,40.4-90.1,90.1-90.1s90.1,40.4,90.1,90.1V360c0,4.1,3.4,7.5,7.5,7.5c4.1,0,7.5-3.4,7.5-7.5v-17.8
        c0-39.3-21.7-73.7-53.8-91.7c0.3-2,0.5-3.9,0.5-5.9c0-23.7-23.3-43-51.9-43s-51.9,19.3-51.9,43c0,2,0.2,4,0.5,5.9
        c-32,18-53.7,52.4-53.7,91.7v35.5c0,11.4,7.6,21.1,18,24.2c0.3,4.4,1,8.7,1.9,13c4.3,19,15.1,36.3,30.3,48.6
        c3.7,3,7.7,5.7,11.9,8.1v18.4c0,4.2-2.5,8-6.4,9.5l-60.9,24.3c-13,5.2-21.5,17.6-21.5,31.7v44.1c0,2,0.8,3.9,2.2,5.3
        c1.4,1.4,3.3,2.2,5.3,2.2c0,0,0,0,0,0h1.4v72.4c0,4.1,3.4,7.5,7.5,7.5c4.1,0,7.5-3.4,7.5-7.5v-72.4h20.5v72.4
        c0,4.1,3.4,7.5,7.5,7.5c4.1,0,7.5-3.4,7.5-7.5v-97.6c0-4.1-3.4-7.5-7.5-7.5c-4.1,0-7.5,3.4-7.5,7.5v10.3h-28c0,0,0,0,0,0h-1.4
        v-36.6c0-7.9,4.7-14.8,12-17.8l47.3-18.9c6.3,10.6,24.1,37,54,52c1.1,0.5,2.2,0.8,3.4,0.8c1.1,0,2.3-0.3,3.4-0.8
        c29.9-15,47.8-41.3,54-52l47.3,18.9c7.3,2.9,12,9.9,12,17.8v36.6H745h-28v-10.3c0-4.1-3.4-7.5-7.5-7.5c-4.1,0-7.5,3.4-7.5,7.5
        v97.6c0,4.1,3.4,7.5,7.5,7.5c4.1,0,7.5-3.4,7.5-7.5v-72.4h20.5v72.4c0,4.1,3.4,7.5,7.5,7.5c4.1,0,7.5-3.4,7.5-7.5v-72.4h1.4
        c4.1,0,7.5-3.4,7.5-7.5v-44.1C761.3,541.5,752.9,529,739.9,523.8z M629.6,216.6c20,0,36.3,12.1,36.8,27.2
        c-11.5-4.3-23.9-6.7-36.8-6.7s-25.4,2.4-36.8,6.7C593.3,228.7,609.6,216.6,629.6,216.6z M584.1,451.8
        c-12.6-10.2-21.5-24.5-25.1-40.2c-1.2-5.2-1.8-10.7-1.8-16.1c0-4.1-3.4-7.5-7.5-7.5c-5.7,0-10.3-4.6-10.3-10.3
        c0-5.7,4.6-10.3,10.3-10.3c22.7,0,39.2-20.6,46.7-32.1c17.5,11.3,37.5,15.2,55.4,18.8c33,6.5,50.2,11.4,50.2,41.3
        c0,5.4-0.6,10.8-1.8,16.1c-3.6,15.7-12.5,30-25.1,40.2c-13,10.5-28.7,16.1-45.5,16.1C612.8,467.8,597.1,462.3,584.1,451.8z
        M629.6,555.6c-22.6-12.5-37.2-32.7-43.3-42.5c9.3-4,15.3-13,15.3-23.2v-11.7c9,3,18.4,4.6,28,4.6s19-1.6,28-4.6V490
        c0,10.2,6,19.2,15.3,23.2C666.8,522.9,652.2,543.1,629.6,555.6z"/>
    </g>
    <g id="cdc-boy">
    <path id="cdc-boy-smile" d="M223.5,373.5c-3.2-2.6-7.9-2.1-10.5,1.1c-3.2,3.9-7.4,6.1-11.9,6.1s-8.7-2.2-11.9-6.1
        c-2.6-3.2-7.3-3.7-10.5-1.1c-3.2,2.6-3.7,7.3-1.1,10.5c6,7.4,14.6,11.6,23.6,11.6s17.6-4.2,23.6-11.6
        C227.2,380.8,226.7,376.1,223.5,373.5z"/>
    <g id="cdc-boy-eye">
        <path d="M165.5,327.4c-4.1,0-7.5,3.4-7.5,7.5v8.9c0,4.1,3.4,7.5,7.5,7.5s7.5-3.4,7.5-7.5v-8.9
        C173,330.8,169.6,327.4,165.5,327.4z"/>
        <path d="M236.5,327.4c-4.1,0-7.5,3.4-7.5,7.5v8.9c0,4.1,3.4,7.5,7.5,7.5s7.5-3.4,7.5-7.5v-8.9
        C244,330.8,240.6,327.4,236.5,327.4z"/>
    </g>
    <g id="cdc-boy-btn">
        <path class="cdc-boy-btn" d="M174.5,558.2L174.5,558.2c-4.2,0-7.5,3.4-7.5,7.5c0,4.1,3.4,7.5,7.5,7.5s7.5-3.4,7.5-7.5
        C182,561.5,178.6,558.2,174.5,558.2z"/>
        <path class="cdc-boy-btn" d="M174.5,593.7L174.5,593.7c-4.2,0-7.5,3.4-7.5,7.5c0,4.1,3.4,7.5,7.5,7.5s7.5-3.4,7.5-7.5
        C182,597,178.6,593.7,174.5,593.7z"/>
        <path class="cdc-boy-btn" d="M174.5,629.2L174.5,629.2c-4.2,0-7.5,3.4-7.5,7.5c0,4.1,3.4,7.5,7.5,7.5s7.5-3.4,7.5-7.5
        C182,632.5,178.6,629.2,174.5,629.2z"/>
    </g>
    <g id="cdc-boy-body">
        <path d="M127.8,535.7l-17.8-35.5c-1.9-3.7-6.4-5.2-10.1-3.4c-3.7,1.9-5.2,6.4-3.4,10.1l17,33.9V681c0,4.1,3.4,7.5,7.5,7.5
        s7.5-3.4,7.5-7.5V539C128.6,537.9,128.3,536.7,127.8,535.7z"/>
        <path d="M302,496.8c-3.7-1.9-8.2-0.4-10.1,3.4l-17.8,35.5c-0.5,1-0.8,2.2-0.8,3.4v142c0,4.1,3.4,7.5,7.5,7.5s7.5-3.4,7.5-7.5
        V540.8l17-33.9C307.2,503.2,305.7,498.7,302,496.8z"/>
        <path d="M319.4,464.7l-50.8-15.3l-8.1-12.2c-1.2-1.8-3.1-3-5.2-3.3c-0.8-0.1-1.7-0.1-2.5,0.1v-11.1
        c19.9-14.7,33.4-37.7,35.3-63.8c10.4-3.1,18-12.8,18-24.2c0-7.4-3.3-14.4-8.9-19.1v-51.9c0-14.2-7.2-27.5-19-35.5
        c-3.9-14.8-17.2-25.3-32.9-25.3h-71c-38.4,0-69.6,31.2-69.6,69.6v43c-5.6,4.8-8.9,11.7-8.9,19.1c0,11.4,7.6,21.1,18,24.2
        c1.9,26.1,15.4,49.1,35.3,63.8v11.1c-0.8-0.2-1.6-0.2-2.5-0.1c-2.1,0.3-4,1.5-5.2,3.3l-8.1,12.2L84.7,464
        c-14.5,4.4-24.3,17.5-24.3,32.7V681c0,4.1,3.4,7.5,7.5,7.5s7.5-3.4,7.5-7.5V496.7c0-8.5,5.5-15.9,13.6-18.3l33.5-10.1
        c0.1,1.6,0.6,3.1,1.6,4.4l30.1,37.7c3.2,4.1,8,6.2,12.8,6.2c3.4,0,6.9-1.1,9.8-3.3l16.6-12.5V681c0,4.1,3.4,7.5,7.5,7.5
        c4.1,0,7.5-3.4,7.5-7.5V500.8l16.6,12.5c3,2.2,6.4,3.3,9.8,3.3c4.8,0,9.5-2.1,12.8-6.2l30.1-37.7c1-1.3,1.6-2.8,1.6-4.4
        l35.6,10.7c8.2,2.4,13.6,9.8,13.6,18.3v184.3c0,4.1,3.4,7.5,7.5,7.5s7.5-3.4,7.5-7.5V497.4C343.7,482.2,333.9,469.1,319.4,464.7
        z M128.6,352.7c0-4.1-3.4-7.5-7.5-7.5c-5.7,0-10.3-4.6-10.3-10.3c0-3.6,1.9-6.9,5.1-8.8c0.2-0.1,0.3-0.2,0.5-0.3
        c1.4-0.7,3-1.1,4.6-1.1h10.5c7.8,0,14.5-5.5,16.1-13.2l5.5-27.3c0.1-0.4,0.3-0.7,0.6-0.9c0.2-0.2,0.7-0.3,1.2-0.1
        c13.3,3.9,29.3,5.9,46.1,5.9c21.6,0,41.5-3.4,56.1-9.5c3.8-1.6,5.6-6,4-9.8c-1.6-3.8-6-5.6-9.8-4c-12.6,5.3-31,8.3-50.4,8.3
        c-15.2,0-30.1-1.9-41.9-5.3c-4.4-1.3-9.3-0.7-13.2,1.7c-3.9,2.4-6.6,6.3-7.5,10.8l-5.5,27.3c-0.1,0.6-0.7,1.1-1.3,1.1h-10.5
        c-0.5,0-0.9,0-1.4,0v-36.9c0-30.1,24.5-54.6,54.6-54.6h71c9.4,0,17.3,6.8,18.8,16.1c0.4,2.3,1.7,4.2,3.7,5.4
        c8.9,5,14.4,14.3,14.4,24.3v55.7c0,2.7,1.4,5.1,3.7,6.5c3.2,1.9,5.1,5.2,5.1,8.8c0,5.7-4.6,10.3-10.3,10.3
        c-4.1,0-7.5,3.4-7.5,7.5c0,39.9-32.5,72.4-72.4,72.4S128.6,392.6,128.6,352.7z M167.9,501.3c-0.6,0.4-1.4,0.3-1.9-0.2
        l-26.7-33.4l10.1-15.1l39.6,33L167.9,501.3z M201,476l-36.9-30.7v-13.4c11.2,5.2,23.7,8.2,36.9,8.2s25.7-2.9,36.9-8.2v13.4
        L201,476z M236,501c-0.5,0.6-1.3,0.7-1.9,0.2l-21-15.8l39.6-33l10.1,15.1L236,501z"/>
    </g>
    </g>
    <g id="cdc-heart">
    <path id="cdc-heart-l" d="M413.3,499.2l10.6-23.7c-2.8-2.1-5.9-3.7-9.3-4.8c-3.3-1.1-6.7-1.6-10.1-1.6h0c-4.2,0-8.3,0.8-12.2,2.4
        c-4,1.6-7.6,4-10.7,7.1c-1,1-2,2.2-2.9,3.3c0,0-7.4,8.8-6.5,20.8v2.6h0.1c0.8,7.3,4.1,14.1,9.3,19.2l38.8,38.8
        c0.9,0.9,2.2,1.5,3.5,1.5c0.3,0,0.6,0,0.9-0.1l10.6-40.7L413.3,499.2z"/>
    <path id="cdc-heart-r" d="M475.7,501.5c0,4.2-0.8,8.3-2.4,12.2c-1.6,4-4,7.6-7.1,10.7l-6.1,6.1c0,0,0,0,0,0c0,0,0,0-0.1,0.1
        l-32.6,32.6c-0.7,0.7-1.6,1.2-2.6,1.4l10.6-40.7l-22-24.8l10.6-23.7c2.8-2.1,5.9-3.7,9.3-4.8c3.3-1.1,6.7-1.6,10.1-1.6h0
        c4.2,0,8.3,0.8,12.2,2.4c4,1.6,7.6,4,10.7,7.1c3.1,3.1,5.5,6.7,7.1,10.7C474.9,493.2,475.7,497.3,475.7,501.5z"/>
    </g>
    <g id="cdc-desktop">
    <polygon id="cdc-desktop-fill" class="st0" points="362.8,651.7 360,491 42.5,491 42.5,720 310,720 310,766 382.7,766
        382.7,651.7 			"/>
    <path id="cdc-desktop-body" d="M374.8,645.3h-7.5V501.1c0-8.3-6.7-15-15-15H51.4c-8.3,0-15,6.7-15,15v209.6c0,8.3,6.7,15,15,15
        H159c-0.6,1.6-0.9,3.2-0.9,5v26.4c0,8.3,6.7,15,15,15h71.7c8.3,0,15-6.7,15-15v-26.4c0-1.8-0.4-3.4-0.9-5h44.3v31.4
        c0,8.3,6.7,15,15,15h56.7c8.3,0,15-6.7,15-15v-96.9C389.8,652,383,645.3,374.8,645.3z M51.4,496.1h300.9c2.8,0,5,2.2,5,5v144.1
        h-39.2c-8.3,0-15,6.7-15,15v19.4H46.4V501.1C46.4,498.4,48.6,496.1,51.4,496.1z M244.7,762.2h-71.7c-2.8,0-5-2.2-5-5h81.7
        C249.7,760,247.5,762.2,244.7,762.2z M249.7,730.8v16.4h-81.7v-16.4c0-2.8,2.2-5,5-5h71.7C247.5,725.8,249.7,728,249.7,730.8z
        M244.7,715.8h-71.7H51.4c-2.8,0-5-2.2-5-5v-21.1h256.7v26.1H244.7z M379.8,757.2c0,2.8-2.2,5-5,5h-56.7c-2.8,0-5-2.2-5-5v-36.4
        v-60.5c0-2.8,2.2-5,5-5h44.2h12.5c2.8,0,5,2.2,5,5V757.2z"/>
    <path id="cdc-alien" d="M170.7,599.7c0,18.7,15.2,44.5,28.6,44.5c12.6,0,28.6-25.8,28.6-44.5c0-18.7-12.8-28.1-28.6-28.1
        S170.7,581,170.7,599.7z M206.8,613.5c3.5-3.5,8.4-4.8,12.9-3.8c1,4.5-0.3,9.4-3.8,12.9s-8.4,4.8-12.9,3.8
        C202,621.8,203.3,616.9,206.8,613.5z M179.1,609.6c4.5-1,9.4,0.3,12.9,3.8s4.8,8.4,3.8,12.9c-4.5,1-9.4-0.3-12.9-3.8
        C179.4,619,178.1,614.1,179.1,609.6z"/>
    </g>
    <g id="cdc-mac">
    <path id="cdc-mac-fill" class="st0" d="M502.7,542.8c84.9,0,169.8,0.1,254.7,0.1c0.2,55.7,0.4,111.4,0.6,167.1c4.3,0,8.7,0,13,0
        v19H490v-20.5h11C501.6,653.3,502.1,598,502.7,542.8z"/>
    <path id="cdc-mac-body" d="M771.2,703.7h-7.4V554.8c0-9.9-8-17.9-17.9-17.9H513.2c-9.9,0-17.9,8-17.9,17.9v148.9H488
        c-2.6,0-4.7,2.1-4.7,4.7v12.9c0,8.4,6.8,15.2,15.2,15.2h262.2c8.4,0,15.2-6.8,15.2-15.2v-12.9
        C775.9,705.8,773.8,703.7,771.2,703.7z M766.5,721.3c0,3.2-2.6,5.8-5.8,5.8H498.5c-3.2,0-5.8-2.6-5.8-5.8v-8.2h7.4h4.7v-9.4v-8.8
        V554.8c0-4.7,3.8-8.5,8.5-8.5H746c4.7,0,8.5,3.8,8.5,8.5v140.1v8.8v9.4h4.7h7.4V721.3z"/>
    <g id="cdc-apple">
        <path id="XMLID_229_" d="M605.5,620c-4.2,7.2-1.5,18.2,3.1,24.9c2.3,3.3,4.6,6.3,7.8,6.3c0.1,0,0.1,0,0.2,0
        c1.5-0.1,2.6-0.5,3.6-1c1.2-0.5,2.4-1,4.3-1c1.8,0,3,0.5,4.1,1c1.1,0.5,2.2,1,3.9,0.9c3.6-0.1,5.8-3.3,7.8-6.1
        c2-3,3.1-5.9,3.4-7l0,0c0.1-0.2,0-0.4-0.2-0.5c0,0,0,0,0,0c-0.6-0.3-6.2-2.7-6.3-9.5c-0.1-5.5,4.2-8.4,5-8.9l0,0
        c0.1-0.1,0.2-0.2,0.2-0.3c0-0.1,0-0.2-0.1-0.3c-2.9-4.3-7.4-4.9-9.2-5c-0.3,0-0.5,0-0.8,0c-2.1,0-4.1,0.8-5.8,1.4
        c-1.1,0.4-2.1,0.8-2.8,0.8c-0.8,0-1.7-0.4-2.9-0.8c-1.5-0.6-3.2-1.3-5-1.3c0,0-0.1,0-0.1,0C611.7,613.8,607.7,616.2,605.5,620z"
        />
        <path id="XMLID_230_" d="M633.2,601.8c-2.6,0.1-5.6,1.7-7.4,3.8c-1.6,1.8-3.1,4.8-2.7,7.8c0,0.2,0.2,0.3,0.4,0.4
        c0.2,0,0.3,0,0.5,0c2.5,0,5.2-1.4,7-3.6c1.9-2.3,2.9-5.4,2.6-8.1C633.6,602,633.4,601.8,633.2,601.8z"/>
    </g>
    </g>
</svg>