<svg xmlns="http://www.w3.org/2000/svg" xmlns:xlink="http://www.w3.org/1999/xlink" x="0px" y="0px" 
    style="enable-background:new 0 0 511 511;" xml:space="preserve" id="datascrapping" viewBox="0 0 511 511" >
    <style>
        path {
            fill: #2bdbff;
        }
    </style>
    <g id="dts-sheet">
        <path id="dts-sheet-window" d="M417.7,178.7c3.6,0,6.6-3,6.6-6.6v-69.2c0-3.6-3-6.6-6.6-6.6H93.3c-3.6,0-6.6,3-6.6,6.6v324.4
        c0,3.6,3,6.6,6.6,6.6h310.1c11.5,0,20.9-9.4,20.9-20.9V229.7c0-1-0.2-2-0.7-2.9l-26.4-54.1c-1.1-2.3-3.4-3.7-5.9-3.7
        c-2.5,0-4.8,1.4-5.9,3.7L359,226.9c-0.4,0.9-0.7,1.9-0.7,2.9V413c0,2.7,0.5,5.3,1.5,7.7h-260V156.9c0.2,0,0.4,0,0.7,0h310.5v15.2
        C411.1,175.8,414.1,178.7,417.7,178.7z M391.3,190.7l15.8,32.4h-31.6L391.3,190.7z M371.5,236.3h39.6v147.4h-16v-57
        c0-3.6-3-6.6-6.6-6.6s-6.6,3-6.6,6.6v57h-10.3V236.3z M371.5,396.9h39.6V413c0,4.3-3.5,7.7-7.7,7.7h-24.1c-4.3,0-7.7-3.5-7.7-7.7
        V396.9z M100.6,143.8c-0.2,0-0.4,0-0.7,0v-34.3h311.2v34.3H100.6z"/>
        <g id="dts-sheet-btn">
        <path class="dts-sheet-btn" d="M159.9,122c-1.2-1.2-2.9-1.9-4.7-1.9c-1.7,0-3.4,0.7-4.7,1.9c-1.2,1.2-1.9,2.9-1.9,4.7s0.7,3.4,1.9,4.7
            c1.2,1.2,2.9,1.9,4.7,1.9s3.4-0.7,4.7-1.9c1.2-1.2,1.9-2.9,1.9-4.7S161.2,123.2,159.9,122z"/>
        <path class="dts-sheet-btn" d="M133.6,122c-1.2-1.2-2.9-1.9-4.7-1.9c-1.7,0-3.4,0.7-4.7,1.9c-1.2,1.2-1.9,2.9-1.9,4.7s0.7,3.4,1.9,4.7
            c1.2,1.2,2.9,1.9,4.7,1.9c1.7,0,3.4-0.7,4.7-1.9c1.2-1.2,1.9-2.9,1.9-4.7S134.8,123.2,133.6,122z"/>
        <path class="dts-sheet-btn" d="M186.3,122c-1.2-1.2-2.9-1.9-4.7-1.9c-1.7,0-3.4,0.7-4.7,1.9c-1.2,1.2-1.9,2.9-1.9,4.7s0.7,3.4,1.9,4.7
            c1.2,1.2,2.9,1.9,4.7,1.9c1.7,0,3.4-0.7,4.7-1.9c1.2-1.2,1.9-2.9,1.9-4.7S187.5,123.2,186.3,122z"/>
        <path class="dts-sheet-btn" d="M382.1,120h-149c-3.6,0-6.6,3-6.6,6.6c0,3.6,3,6.6,6.6,6.6h149c3.6,0,6.6-3,6.6-6.6C388.7,123,385.7,120,382.1,120z"/>
        </g>
        <path id="dts-sheet-dot" d="M388.5,299.6c-3.6,0-6.6,3-6.6,6.6v0.1c0,3.6,3,6.6,6.6,6.6s6.6-3,6.6-6.6v-0.1
        C395.1,302.6,392.1,299.6,388.5,299.6z"/>
        <g id="dts-sheet-content">
        <path class="dts-sheet-content" d="M336.8,175.4h-84.6c-3.6,0-6.6,3-6.6,6.6s3,6.6,6.6,6.6h84.6c3.6,0,6.6-3,6.6-6.6C343.4,178.4,340.4,175.4,336.8,175.4z"
            />
        <path class="dts-sheet-content" d="M336.8,207.1h-84.6c-3.6,0-6.6,3-6.6,6.6c0,3.6,3,6.6,6.6,6.6h84.6c3.6,0,6.6-3,6.6-6.6
            C343.4,210,340.4,207.1,336.8,207.1z"/>
        <path class="dts-sheet-content" d="M336.8,238.7h-84.6c-3.6,0-6.6,3-6.6,6.6c0,3.6,3,6.6,6.6,6.6h84.6c3.6,0,6.6-3,6.6-6.6
            C343.4,241.7,340.4,238.7,336.8,238.7z"/>
        <path class="dts-sheet-content" d="M284.7,270.4h-32.5c-3.6,0-6.6,3-6.6,6.6s3,6.6,6.6,6.6h32.5c3.6,0,6.6-3,6.6-6.6S288.3,270.4,284.7,270.4z"/>
        <path class="dts-sheet-content" d="M200.2,249.6l-19.1-45.3c-1-2.4-3.4-4-6.1-4c-2.7,0-5,1.6-6.1,4l-19.1,45.3c-1.4,3.4,0.2,7.2,3.5,8.6
            c3.4,1.4,7.2-0.2,8.6-3.5l2.4-5.7h21.3l2.4,5.7c1.1,2.5,3.5,4,6.1,4c0.9,0,1.7-0.2,2.6-0.5C200.1,256.8,201.7,252.9,200.2,249.6z
            M170,235.8l5.1-12l5.1,12H170z"/>
        <path class="dts-sheet-content" d="M221.2,175.4h-92.3c-3.6,0-6.6,3-6.6,6.6V277c0,3.6,3,6.6,6.6,6.6h92.3c3.6,0,6.6-3,6.6-6.6V182
            C227.8,178.4,224.9,175.4,221.2,175.4z M214.6,270.4h-79.1v-81.8h79.1V270.4z"/>
        </g>
    </g>
</svg>