<svg xmlns="http://www.w3.org/2000/svg"  id="findthebug"  width="300" viewBox="0 0 511 511">
    <style>
        path {
            fill: #2bdbff;
        }
    </style>
    <g id="ftb-bug">
        <path id="ftb-body" d="M324.5,245.2c-5.1-12.9-13.2-24-23.5-32.1c10.3-3.8,17.7-13.7,17.7-25.3c0-2.1-1.7-3.9-3.9-3.9
        c-2.1,0-3.9,1.7-3.9,3.9c0,9.4-6.7,17.2-15.6,18.9c0.1-0.9,0.1-1.7,0.1-2.6c0-14.5-13.4-26.5-30.6-28.2
        c1.8-13.2,13.1-23.3,26.7-23.3c2.1,0,3.9-1.7,3.9-3.9c0-2.1-1.7-3.9-3.9-3.9c-13.4,0-25.1,7.7-30.8,18.8
        c-5.8-11.2-17.4-18.8-30.8-18.8c-2.1,0-3.9,1.7-3.9,3.9c0,2.1,1.7,3.9,3.9,3.9c13.6,0,24.9,10.2,26.7,23.3
        c-17.2,1.7-30.6,13.7-30.6,28.2c0,0.9,0.1,1.7,0.2,2.6c-8.9-1.7-15.6-9.5-15.6-18.9c0-2.1-1.7-3.9-3.9-3.9c-2.1,0-3.9,1.7-3.9,3.9
        c0,11.6,7.4,21.5,17.7,25.3c-10.2,8.1-18.4,19.2-23.5,32.1c-14,1-25,12.7-25,26.9c0,2.1,1.7,3.9,3.9,3.9s3.9-1.7,3.9-3.9
        c0-9,6.2-16.6,14.6-18.7c-2,7.1-3,14.7-3,22.5c0,11.2,2.2,22.1,6.3,32c-11,6.5-15.5,21.4-9.9,34.9c0.6,1.5,2,2.4,3.6,2.4
        c0.5,0,1-0.1,1.5-0.3c2-0.8,2.9-3.1,2.1-5c-4-9.7-1.3-20.2,6-25c4.7,8.8,10.9,16.6,18.5,22.9c-0.7,0.8-1.5,1.6-2.2,2.3
        c-1.5,1.5-1.5,4,0,5.4c0.8,0.7,1.7,1.1,2.7,1.1c1,0,2-0.4,2.7-1.1c12.4-12.6,22.9-32.5,30.3-57.5c3.2-10.8,5.8-22.4,7.7-34.5
        c1.9,12.3,4.6,24.2,7.9,35.2c5.8,19.3,13.4,35.5,22.3,47.6c-8.9,5.7-19.2,8.9-30.2,8.9c-7.1,0-14.1-1.3-20.7-4
        c-2-0.8-4.2,0.2-5,2.1c-0.8,2,0.2,4.2,2.1,5c7.5,3,15.5,4.6,23.6,4.6c12.8,0,24.8-3.9,35.1-10.6c1.2,1.4,2.4,2.7,3.7,3.9
        c0.8,0.7,1.7,1.1,2.7,1.1c1,0,2-0.4,2.7-1.2c1.5-1.5,1.5-4,0-5.4c-1-0.9-1.9-1.9-2.8-3c7.5-6.2,13.8-14,18.6-23
        c7.5,4.7,10.3,15.3,6.2,25.1c-0.8,2,0.1,4.2,2.1,5c0.5,0.2,1,0.3,1.5,0.3c1.5,0,2.9-0.9,3.6-2.4c5.6-13.6,1.1-28.7-10.1-35.1
        c4-9.7,6.2-20.5,6.2-31.9c0-7.8-1.1-15.4-3-22.5c8.4,2.1,14.6,9.7,14.6,18.7c0,2.1,1.7,3.9,3.9,3.9s3.9-1.7,3.9-3.9
        C349.6,257.9,338.5,246.2,324.5,245.2z M260.9,183.4c14.9,0,27,9.3,27,20.7c0,0.3,0,0.5,0,0.8c-8.3-3.9-17.4-6.1-26.9-6.1
        c-9.6,0-18.7,2.2-27,6.1c0-0.3,0-0.5,0-0.8C234,192.7,246.1,183.4,260.9,183.4z M224.5,331.9c-15.8-13.1-25.2-33.9-25.2-55.9
        c0-36.8,25.6-67,57.8-69.2C256.5,258.3,244,305.5,224.5,331.9z M297.4,331.9c-19.5-26.4-31.9-73.5-32.5-125.2
        c32.2,2.3,57.8,32.4,57.8,69.2C322.6,298.9,312.7,319.2,297.4,331.9z"/>
        <g class="ftb-body-dot" id="ftb-dot-4">
        <path d="M222.4,295.2c-4.2,0-7.7,3.5-7.7,7.7s3.5,7.7,7.7,7.7c4.2,0,7.7-3.5,7.7-7.7S226.7,295.2,222.4,295.2z"/>
        <path d="M299.5,295.2c-4.2,0-7.7,3.5-7.7,7.7s3.5,7.7,7.7,7.7c4.2,0,7.7-3.5,7.7-7.7S303.7,295.2,299.5,295.2z"/>
        </g>
        <g class="ftb-body-dot" id="ftb-dot-3">
        <path d="M234,272.1c-4.2,0-7.7,3.5-7.7,7.7s3.5,7.7,7.7,7.7s7.7-3.5,7.7-7.7S238.2,272.1,234,272.1z"/>
        <path d="M295.6,279.8c0-4.2-3.5-7.7-7.7-7.7c-4.2,0-7.7,3.5-7.7,7.7s3.5,7.7,7.7,7.7C292.2,287.5,295.6,284,295.6,279.8z"/>
        </g>
        <g class="ftb-body-dot" id="ftb-dot-2">
        <path d="M226.3,260.5c0-4.2-3.5-7.7-7.7-7.7s-7.7,3.5-7.7,7.7c0,4.2,3.5,7.7,7.7,7.7C222.8,268.2,226.3,264.8,226.3,260.5z"/>
        <path d="M303.3,252.8c-4.2,0-7.7,3.5-7.7,7.7c0,4.2,3.5,7.7,7.7,7.7c4.2,0,7.7-3.5,7.7-7.7C311,256.3,307.6,252.8,303.3,252.8z"/>
        </g>
        <g class="ftb-body-dot" id="ftb-dot-1">
        <path d="M234,249c4.2,0,7.7-3.5,7.7-7.7c0-4.2-3.5-7.7-7.7-7.7s-7.7,3.5-7.7,7.7C226.3,245.5,229.7,249,234,249z"/>
        <path d="M287.9,249c4.2,0,7.7-3.5,7.7-7.7c0-4.2-3.5-7.7-7.7-7.7c-4.2,0-7.7,3.5-7.7,7.7C280.2,245.5,283.7,249,287.9,249z"/>
        </g>
    </g>
    <g id="ftb-circle">
        <path class="ftb-circle" id="ftb-circle-2" d="M399.5,118C361.5,80,310.9,59,257.1,59s-104.4,21-142.5,59c-33.1,33.1-53.8,77-58.1,123.5
        c-4.3,45.9,7.3,92.3,32.7,130.4c2.4,3.6,7.3,4.6,10.9,2.2c3.6-2.4,4.6-7.3,2.2-10.9C53.5,290,63.4,191.5,125.7,129.2
        c35.1-35.1,81.7-54.4,131.3-54.4s96.3,19.3,131.3,54.4c72.4,72.4,72.4,190.3,0,262.7c-64.9,64.9-165.9,73-240.1,19.3
        c-3.5-2.5-8.4-1.8-11,1.8c-2.5,3.5-1.8,8.4,1.8,11c34.3,24.8,75.7,38.1,118,38.1c5,0,10.1-0.2,15.1-0.6
        c48-3.6,93.2-24.4,127.3-58.4c38.1-38.1,59-88.7,59-142.5S437.6,156.1,399.5,118z"/>
        <path class="ftb-circle-dot" id="ftb-circle-dot-2" d="M125.8,391.9L125.8,391.9c-3.2-3.2-8.1-3.1-11.2,0c-3.1,3.1-3,8.1,0.1,11.2l0.1,0.1
        c1.5,1.5,3.5,2.3,5.5,2.3c2,0,4.1-0.8,5.6-2.3C128.9,400,128.9,395,125.8,391.9z"/>
        <path class="ftb-circle-dot" id="ftb-circle-dot-1" d="M156.1,147.8c-3.1-3.1-8-3.1-11.1,0l-0.3,0.3c-3.1,3.1-3.1,8.1,0,11.1c1.5,1.5,3.6,2.3,5.6,2.3
        c2,0,4-0.8,5.6-2.3l0.3-0.3C159.1,155.9,159.1,150.9,156.1,147.8z"/>
        <path class="ftb-circle" id="ftb-circle-1" d="M165.7,372.4c-3.4-2.8-6.7-5.8-9.9-9c-3.2-3.2-6.2-6.5-9-9.9l14.5-14.5c3.1-3.1,3.1-8.1,0-11.1
        c-3.1-3.1-8.1-3.1-11.1,0l-12.9,12.9c-29.7-45.2-31.9-104.2-3.3-152c2.2-3.7,1-8.6-2.7-10.8c-3.7-2.2-8.6-1-10.8,2.7
        c-17.8,29.8-25.4,65.4-21.3,100.1c4.2,35.8,19.9,68.2,45.5,93.8c31,31,71.7,46.5,112.4,46.5c40.7,0,81.4-15.5,112.4-46.5
        c62-62,62-162.8,0-224.8c-25.6-25.6-58-41.3-93.8-45.5c-34.7-4.1-70.3,3.5-100.2,21.4c-3.7,2.2-4.9,7.1-2.7,10.8
        c2.2,3.7,7.1,4.9,10.8,2.7c47.9-28.6,106.9-26.5,152.1,3.2c0,0,19.5,15.3,22.7,18.5c3.2,3.2,6.2,6.5,9,9.9l-15.1,15.1
        c-3.1,3.1-3.1,8.1,0,11.1c1.5,1.5,3.6,2.3,5.6,2.3s4-0.8,5.6-2.3l13.4-13.4c36.5,55.5,30.3,131.1-18.5,179.9
        c-48.8,48.8-124.3,55-179.9,18.5l151.9-151.5c1.5-1.5,2.3-3.5,2.3-5.6v-19.4c0-4.3-3.5-7.9-7.9-7.9c-4.3,0-7.9,3.5-7.9,7.9v16.2
        L165.7,372.4z"/>
    </g>
</svg>